<?xml version="1.0" encoding="UTF-8" standalone="no"?>
<svg
   xmlns:dc="http://purl.org/dc/elements/1.1/"
   xmlns:cc="http://creativecommons.org/ns#"
   xmlns:rdf="http://www.w3.org/1999/02/22-rdf-syntax-ns#"
   xmlns:svg="http://www.w3.org/2000/svg"
   xmlns="http://www.w3.org/2000/svg"
   viewBox="0 0 106.3 54.724998"
   height="54.724998"
   width="106.3"
   xml:space="preserve"
   version="1.1"
   id="svg2"><metadata
     id="metadata8"><rdf:RDF><cc:Work
         rdf:about=""><dc:format>image/svg+xml</dc:format><dc:type
           rdf:resource="http://purl.org/dc/dcmitype/StillImage" /></cc:Work></rdf:RDF></metadata><defs
     id="defs6" /><g
     transform="matrix(1.25,0,0,-1.25,0,54.725)"
     id="g10"><g
       transform="scale(0.1,0.1)"
       id="g12"><path
         id="path14"
         style="fill:#26b481;fill-opacity:1;fill-rule:nonzero;stroke:none"
         d="m 30.3672,423.516 -30.3672,0 0,9.879 41.6172,0 0,-31.375 c 15.0273,23.191 35.1523,34.445 62.1288,34.445 26.934,0 46.359,-9.211 60.703,-28.649 12.973,-17.753 13.985,-36.855 13.985,-61.429 l 0,-85.309 30.371,0 0,-9.898 -75.067,0 0,9.898 33.45,0 0,83.613 c 0,22.848 -0.684,40.247 -10.25,55.27 -10.907,17.066 -29.692,26.605 -52.192,26.605 -23.2069,0 -40.9491,-8.867 -52.5429,-26.269 C 41.6172,384.262 41.6172,366.512 41.6172,344.691 l 0,-83.613 33.4531,0 0,-9.898 -75.0703,0 0,9.898 30.3672,0 0,162.438" /><path
         id="path16"
         style="fill:#26b481;fill-opacity:1;fill-rule:nonzero;stroke:none"
         d="m 266.199,281.547 c 15.688,-16.363 35.481,-25.238 57.321,-25.238 21.851,0 41.621,8.875 57.324,25.238 15.351,16.055 23.883,37.551 23.883,60.738 0,23.199 -8.532,44.707 -23.883,60.742 -15.703,16.375 -35.473,24.922 -57.324,24.922 -21.84,0 -41.633,-8.547 -57.321,-24.922 -15.363,-16.386 -23.91,-37.543 -23.91,-60.742 0,-23.187 8.547,-44.347 23.91,-60.738 z m -8.898,128.648 c 17.762,18.09 40.969,27.633 66.219,27.633 25.25,0 48.113,-9.543 65.843,-27.633 17.407,-17.738 27.313,-41.968 27.313,-67.91 0,-25.933 -9.906,-50.16 -27.313,-67.906 -17.73,-18.07 -40.593,-27.969 -65.843,-27.969 -25.25,0 -48.457,9.899 -66.219,27.969 -17.379,17.746 -26.934,41.973 -26.934,67.906 0,25.942 9.555,50.172 26.934,67.91" /><path
         id="path18"
         style="fill:#26b481;fill-opacity:1;fill-rule:nonzero;stroke:none"
         d="m 453.207,423.516 -19.473,0 0,9.879 63.477,0 0,-9.879 -32.422,0 63.141,-160.727 63.14,160.727 -32.437,0 0,9.879 63.461,0 0,-9.879 -19.418,0 -68.262,-172.336 -12.953,0 -68.254,172.336" /><path
         id="path20"
         style="fill:#26b481;fill-opacity:1;fill-rule:nonzero;stroke:none"
         d="m 727.574,257.32 c 21.469,0 40.949,8.528 56.281,24.922 15.016,16.028 23.208,37.184 23.208,60.043 0,22.875 -8.192,44.02 -23.208,60.067 -15.332,16.375 -34.812,24.902 -56.281,24.902 -44.035,0 -79.523,-37.191 -79.523,-84.969 0,-47.765 35.828,-84.965 79.523,-84.965 z m 0,-9.898 c -24.586,0 -47.437,9.558 -64.859,27.652 -17.395,18.078 -26.27,40.602 -26.27,67.211 0,26.625 8.875,49.156 26.27,67.235 17.422,18.074 40.273,27.632 64.859,27.632 34.457,0 63.114,-17.75 79.489,-49.824 l 0,46.067 43.332,0 0,-9.879 -32.075,0 0,-162.438 32.075,0 0,-9.898 -43.332,0 0,46.758 c -18.079,-33.45 -44.7,-50.516 -79.489,-50.516" /><path
         id="path22"
         style="fill:#26b481;fill-opacity:1;fill-rule:nonzero;stroke:none"
         d="m 30.3672,177.09 -30.3672,0 0,9.89 41.6172,0 0,-31.382 c 15.0273,23.191 35.1523,34.453 62.1288,34.453 26.934,0 46.359,-9.211 60.703,-28.664 12.973,-17.754 13.985,-36.856 13.985,-61.4143 l 0,-85.3164 30.371,0 0,-9.89067 -75.067,0 0,9.89067 33.45,0 0,83.6054 c 0,22.8713 -0.684,40.2613 -10.25,55.2733 -10.907,17.063 -29.692,26.61 -52.192,26.61 -23.2069,0 -40.9491,-8.868 -52.5429,-26.258 C 41.6172,137.832 41.6172,120.098 41.6172,98.2617 l 0,-83.6054 33.4531,0 0,-9.89067 -75.0703,0 0,9.89067 30.3672,0 0,162.4337" /><path
         id="path24"
         style="fill:#26b481;fill-opacity:1;fill-rule:nonzero;stroke:none"
         d="m 404.375,106.777 c -6.137,45.059 -40.582,74.739 -80.855,74.739 -40.606,0 -73.028,-27.981 -80.528,-74.739 l 161.383,0 z M 323.52,0 c -25.25,0 -48.457,9.88281 -66.219,27.9688 -17.379,17.7343 -26.934,42.3046 -26.934,67.8984 0,25.5978 9.555,50.1558 26.934,67.9218 17.762,18.066 40.969,27.625 66.219,27.625 50.496,0 91.105,-38.211 93.156,-94.8515 l -174.387,0 c 2.406,-52.5586 37.219,-86.67969 81.231,-86.67969 31.367,0 58.355,17.42189 72.003,46.74999 l 11.926,0 C 393.824,21.1406 362.41,0 323.52,0" /><path
         id="path26"
         style="fill:#26b481;fill-opacity:1;fill-rule:nonzero;stroke:none"
         d="m 477.129,177.09 -40.234,0 0,9.89 40.234,0 0,37.282 11.269,0 0,-37.282 42.282,0 0,-9.89 -42.282,0 0,-162.4337 35.125,0 0,-9.89067 -46.394,0 0,172.32437" /></g></g></svg>